<svg xmlns="http://www.w3.org/2000/svg" xml:space="preserve" viewBox="0 0 1030.45 463.76">
  <defs>
    <clipPath id="a" clipPathUnits="userSpaceOnUse">
      <path d="M0 444.96h971.06V0H0Z"/>
    </clipPath>
  </defs>
  <g clip-path="url(#a)" transform="matrix(1.33333 0 0 -1.33333 -135.82 530.83)">
    <path fill="#16becf" d="M367.36 377.31c0-8.95-7.24-16.19-16.2-16.19a16.17 16.17 0 0 0-16.18 16.19c0 8.95 7.23 16.19 16.19 16.19 8.95 0 16.19-7.24 16.19-16.19M134.24 221.9c0-8.95-7.23-16.19-16.19-16.19a16.17 16.17 0 0 0-16.19 16.19c0 8.96 7.24 16.19 16.2 16.19 8.95 0 16.18-7.23 16.18-16.19M237.85 92.4c0-8.96-7.24-16.2-16.2-16.2a16.17 16.17 0 0 0-16.18 16.2c0 8.95 7.23 16.18 16.19 16.18 8.95 0 16.19-7.23 16.19-16.19M341.45 66.49c0-8.95-7.23-16.19-16.18-16.19a16.17 16.17 0 0 0-16.2 16.19c0 8.96 7.24 16.19 16.2 16.19 8.95 0 16.18-7.23 16.18-16.19M247.54 209.1l-21.71 55.16h-9.9l31.4-77.4 31.38 77.4h-9.35zm37.85-20.1h9.04v49.67h-9.04zm4.51 71.7a6.19 6.19 0 0 1-6.12-6.12c0-3.34 2.8-6.13 6.12-6.13a6.2 6.2 0 0 1 6.13 6.13 6.2 6.2 0 0 1-6.13 6.13m39.36-42.8c-8.93 2.02-12.04 3.77-12.04 7.54 0 3.55 3.13 6.34 9.46 6.34 7.53 0 12.88-4.95 12.88-4.95l5.66 6.38s-6.81 6.74-18.54 6.74c-11.07 0-18.27-7.1-18.27-14.3 0-9.35 7.53-13.54 18.17-15.7 7.63-1.5 11.28-3.65 11.28-7.95 0-3.58-3.61-6.13-10.45-6.13-9.7 0-15.35 8.06-15.35 8.06l-6.23-5.8s7.02-10.43 21.58-10.43c10.44 0 19.38 5.27 19.38 14.51 0 10.11-8.08 13.57-17.53 15.7m50.3 22.04c-14.95 0-24.83-11.61-24.83-26.12 0-14.73 10.85-26.13 25.9-26.13 13.12 0 20.65 9.79 20.65 9.79l-5.7 5.9s-5.16-7.3-14.95-7.3c-9.35 0-16.55 6.98-17.09 14.51h40.1c.1 1.18.1 1.94.1 2.9 0 16.02-10.31 26.45-24.18 26.45m-15.8-21.82c.64 5.16 5.05 13.44 15.8 13.44 10 0 15.05-7.85 15.38-13.44zM452 231.46s-4.84 8.5-16.76 8.5c-13.44 0-24.08-11.5-24.08-26.12 0-14.62 10.64-26.13 24.08-26.13 9.13 0 14.3 5.27 16.01 7.53v-6.88c0-11.18-6.55-16.99-17.09-16.99-10.22 0-16.24 7.84-16.24 7.84l-5.48-6.76s8.06-9.46 21.72-9.46c14.4 0 26.13 8.6 26.13 25.8v49.88H452zm-.75-26.98s-4.72-8.38-14.62-8.38c-10.1 0-16.45 7.96-16.45 17.74 0 9.78 6.34 17.74 16.45 17.74 9.79 0 14.62-8.4 14.62-8.4zm31.18 26.56v7.63h-8.4V189h9.03v34.19s2.88 8.39 11.77 8.39c4.31 0 6.91-1.58 6.91-1.58l1.75 8.67s-3.12 1.3-7.2 1.3c-10.27 0-13.86-8.93-13.86-8.93m47.27 8.92c-11.93 0-18.6-5.05-18.6-5.05l3.76-7.53s5.72 4.2 14.84 4.2c3.97 0 12.57-1.4 12.57-11.72v-2.7s-5.8 4.1-14.94 4.1c-11.18 0-19.67-6.88-19.67-16.56 0-10.75 9.57-16.99 18.48-16.99a21.01 21.01 0 0 1 16.9 8.5V189h8.27v32.68c0 9.25-7 18.28-21.61 18.28m12.57-36.76s-5.37-7.53-14.18-7.53c-5.6 0-11.4 2.58-11.4 9.03 0 5.16 4.84 9.03 12.58 9.03 8.05 0 13-3.55 13-3.55zm59.45 29.34s-5.05 7.42-16.02 7.42c-13.43 0-24.08-11.5-24.08-26.12 0-14.62 10.65-26.13 24.08-26.13 11.93 0 16.78 8.5 16.78 8.5V189h8.27v77.07h-9.03zm0-27.84s-4.73-8.6-14.62-8.6c-10.1 0-16.44 7.96-16.44 17.74 0 9.78 6.55 17.74 16.44 17.74 9.9 0 14.62-8.6 14.62-8.6zm56.76-15.7h9.02v29.89h30.39v8.6H667.5v28.17h32.36v8.6h-41.38zm84 15.27s-3.97-8.17-12.36-8.17c-6.67 0-11.93 3.65-11.93 12.14v30.43h-9.04v-31.93c0-12.26 8.82-19.03 18.71-19.03 10.75 0 15.27 8.93 15.27 8.93V189h8.38v49.67h-9.03zm47.9 35.7c-10.74 0-15.26-8.3-15.26-8.3v7h-8.38V189h9.02v34.19s4.3 8.39 12.36 8.39c6.67 0 11.94-3.66 11.94-12.16V189h9.03v31.93c0 12.25-8.81 19.03-18.7 19.03m69.78 26.1v-33.52s-5.05 7.42-16.02 7.42c-13.44 0-24.08-11.5-24.08-26.12 0-14.62 10.64-26.13 24.08-26.13 11.93 0 16.76 8.5 16.76 8.5V189h8.29v77.07zm0-61.36s-4.73-8.6-14.62-8.6c-10.11 0-16.46 7.96-16.46 17.74 0 9.78 6.57 17.74 16.46 17.74s14.62-8.6 14.62-8.6zM576.59 370.1s2.72-3.14 6.72-3.14c2.49 0 4.6.61 4.6 2.3 0 1.32-1.27 1.6-4.23 2.26-3.9.84-7.1 2.77-7.1 6.58 0 4 3.81 7.33 9.55 7.33 5.59 0 8.88-2.77 8.88-2.77l-2.92-4.28s-2.96 2.11-5.96 2.11c-1.74 0-4-.56-4-2.3 0-1.13 1.32-1.6 4.65-2.35 3.39-.75 6.87-2.25 6.87-6.44 0-4.84-5.17-7.37-10.34-7.37-6.16 0-10.01 4.04-10.01 4.04zM599.43 370.9l2.44 13.97h5.64l-2.26-12.88c-.6-3.3.8-4.7 3.58-4.7 3.05 0 4.93 2.96 4.93 2.96l2.59 14.62h5.64l-3.9-22.28h-5.27l.52 3s-2.59-3.56-6.91-3.56c-4.28 0-7.94 3.52-7 8.88M631.86 370.16s1.08-2.87 4.79-2.87c4.32 0 7.38 3.62 7.38 7.85 0 2.96-1.83 5.03-5.12 5.03-3.72 0-5.83-3.1-5.83-3.1zm2.16 14.7-.47-2.67s2.68 3.24 7.28 3.24c5.36 0 8.98-4.46 8.98-10.3 0-7.7-6.02-13.1-12.31-13.1-3.53 0-5.97 1.92-6.58 2.86l-2.3-13.11h-5.65l5.83 33.09zM659.96 370.16s1.08-2.87 4.8-2.87c4.32 0 7.37 3.62 7.37 7.85 0 2.96-1.83 5.03-5.12 5.03-3.71 0-5.83-3.1-5.83-3.1zm2.16 14.7-.47-2.67s2.68 3.24 7.29 3.24c5.36 0 8.98-4.46 8.98-10.3 0-7.7-6.02-13.1-12.32-13.1-3.52 0-5.97 1.92-6.58 2.86l-2.3-13.11h-5.64l5.83 33.09zM699.68 375c0 2.86-1.84 5.17-5.27 5.17-4.27 0-7.23-3.72-7.23-7.71 0-2.87 1.83-5.17 5.26-5.17 4.28 0 7.24 3.71 7.24 7.7m5.82 0c0-7.37-6.67-12.96-13.06-12.96-7.33 0-11.1 4.88-11.1 10.43 0 7.42 6.68 12.97 13.07 12.97 7.33 0 11.1-4.89 11.1-10.43M727.88 384.72l-2.4-5.07s-1.46.52-3.1.52c-3.43 0-5.5-3.01-5.5-3.01l-2.54-14.57h-5.64l3.9 22.28h5.36l-.56-3.25s2.58 3.81 6.72 3.81c2.02 0 3.76-.7 3.76-.7M729.71 384.87h4.84l1.18 6.62h5.63l-1.17-6.62h6.72l-.9-5.08h-6.71l-1.65-9.21c-.47-2.73.9-3.3 2.4-3.3 1.22 0 2.44.8 2.44.8l1.6-4.7s-2.26-1.36-5.5-1.36c-4.28 0-7.47 3.39-6.62 8.14l1.69 9.63h-4.84zM766.37 375.8c0 .14.05.28.05.42 0 1.88-1.41 4.09-4.84 4.09a6.76 6.76 0 0 1-6.44-4.52zm5.5.23c0-.7-.05-1.46-.61-4.32h-16.73c.04-1.98 2.02-4.52 5.54-4.52 3.9 0 6.4 2.26 6.4 2.26l2.63-4.32s-3.62-3.1-9.03-3.1c-7.47 0-11.04 5.02-11.04 10.57 0 7.33 6.2 12.83 12.55 12.83 6.25 0 10.29-3.76 10.29-9.4M793.25 377.3s-1.13 2.87-4.84 2.87c-4.23 0-7.33-3.62-7.33-7.8 0-2.97 1.74-5.08 5.08-5.08 3.8 0 5.92 3.34 5.92 3.34zm3.06-14.71h-5.22l.47 2.91s-2.73-3.48-7.33-3.48c-4.94 0-8.98 4-8.98 10.34a13 13 0 0 0 12.65 13.07c4.22 0 6.3-2.77 6.3-2.77l2.72 15.46h5.64zM826.43 370.39s1.04-3.1 4.75-3.1c4.32 0 7.38 3.62 7.38 7.85 0 2.96-1.83 5.03-5.12 5.03-3.72 0-5.83-3.1-5.83-3.1zm-.75 27.73h5.64l-2.77-15.6s2.58 2.9 6.81 2.9c5.36 0 8.98-4.45 8.98-10.28 0-7.24-6.01-13.11-12.31-13.11-4.89 0-6.87 3.7-6.87 3.7l-.51-3.14h-5.22zM846.74 357.94s1.46-1.46 3.29-1.46c1.93 0 2.82.56 4.46 3.43l1.32 2.3-6.82 22.66h6.11l4.56-16.22 8.65 16.22h6.4L859.1 357.6c-2.82-4.9-5.36-6.4-8.93-6.4-3.53 0-6.06 2.26-6.06 2.26z"/>
  </g>
</svg>
