<?xml version="1.0" standalone="no"?>
<!DOCTYPE svg PUBLIC "-//W3C//DTD SVG 20010904//EN"
 "http://www.w3.org/TR/2001/REC-SVG-20010904/DTD/svg10.dtd">
<svg version="1.0" xmlns="http://www.w3.org/2000/svg"
 width="1042.000000pt" height="1042.000000pt" viewBox="0 0 1042.000000 1042.000000"
 preserveAspectRatio="xMidYMid meet">
<metadata>
Created by potrace 1.14, written by Peter Selinger 2001-2017
</metadata>
<g transform="translate(0.000000,1042.000000) scale(0.100000,-0.100000)"
fill="#000000" stroke="none">
<path d="M4948 10415 c-2 -1 -51 -6 -109 -9 -58 -4 -117 -8 -130 -11 -13 -2
-55 -6 -92 -10 -37 -3 -76 -8 -85 -10 -9 -1 -39 -6 -67 -9 -68 -9 -96 -14
-195 -32 -47 -9 -96 -18 -110 -20 -60 -11 -323 -77 -400 -100 -413 -125 -834
-303 -1135 -482 -235 -140 -283 -171 -463 -301 -388 -279 -745 -622 -1047
-1006 -101 -128 -119 -153 -226 -310 -216 -313 -435 -742 -567 -1105 -52 -142
-101 -292 -108 -324 -2 -11 -10 -40 -18 -65 -15 -44 -60 -220 -70 -271 -44
-222 -60 -308 -72 -395 -3 -27 -8 -58 -10 -69 -2 -10 -6 -51 -10 -90 -3 -39
-8 -73 -9 -76 -2 -3 -7 -61 -11 -130 -15 -222 -9 -770 10 -890 2 -14 7 -52 10
-85 8 -68 11 -92 31 -225 19 -121 24 -149 31 -180 3 -14 8 -34 10 -45 17 -85
45 -207 71 -300 13 -49 26 -99 28 -109 12 -55 105 -322 162 -466 94 -237 259
-573 366 -744 290 -465 466 -688 829 -1048 181 -181 218 -222 213 -240 -2 -13
-7 -39 -9 -58 -4 -28 -31 -204 -61 -400 -2 -14 -6 -43 -10 -65 -3 -23 -7 -50
-9 -60 -2 -11 -7 -42 -10 -70 -12 -85 -17 -119 -21 -135 -2 -8 -7 -37 -10 -65
-3 -27 -10 -73 -15 -101 -5 -28 -6 -61 -3 -72 12 -46 76 -60 114 -26 10 9 20
39 24 67 4 29 9 61 11 72 2 10 6 37 9 60 3 22 8 51 10 65 2 14 7 45 10 70 3
25 8 52 10 60 2 8 7 40 10 70 3 30 8 62 10 70 2 8 7 35 10 60 8 57 14 98 20
130 3 14 7 48 10 75 4 28 8 57 10 65 2 8 7 35 10 60 4 25 8 46 9 48 3 2 81
-58 147 -112 8 -7 58 -43 110 -80 52 -37 102 -74 112 -82 9 -7 19 -14 22 -14
3 0 27 -15 53 -33 207 -145 572 -339 866 -461 314 -131 718 -254 996 -302 14
-2 48 -9 75 -14 28 -5 66 -12 85 -15 19 -3 46 -7 60 -10 14 -3 45 -7 70 -10
25 -3 63 -8 85 -10 196 -25 297 -30 615 -30 278 0 483 7 545 19 11 2 52 7 90
10 39 4 111 14 160 22 103 17 127 21 175 29 241 37 776 194 1005 295 22 10 94
41 160 70 171 75 415 203 591 310 65 41 232 149 249 162 6 4 66 49 135 99 273
200 584 484 785 715 33 38 62 71 65 74 3 3 28 32 55 65 28 33 53 62 56 65 13
12 191 253 250 340 322 473 561 989 719 1553 12 43 23 86 25 95 2 9 12 55 24
102 28 118 77 385 86 475 2 17 6 50 10 75 3 25 8 61 10 80 27 201 27 998 0
1083 -2 6 -6 43 -9 80 -6 65 -12 113 -22 167 -2 14 -9 55 -14 93 -52 354 -218
896 -390 1272 -52 114 -165 337 -194 383 -14 23 -26 44 -26 46 0 8 -97 167
-175 286 -90 139 -325 455 -365 490 -3 3 -30 34 -60 70 -67 79 -422 436 -505
507 -82 69 -228 187 -295 237 -30 22 -57 43 -60 46 -3 3 -37 27 -77 54 -79 53
-77 51 -97 189 -4 27 -9 56 -11 65 -1 10 -6 40 -9 67 -16 122 -40 240 -50 250
-18 18 -56 24 -82 13 -34 -16 -42 -52 -28 -133 7 -38 15 -95 19 -125 3 -30 8
-62 10 -70 2 -8 7 -35 10 -59 l6 -44 -25 16 c-27 18 -75 47 -116 70 -14 8 -54
31 -90 52 -120 69 -424 214 -585 278 -321 129 -717 243 -1014 292 -19 3 -37 7
-40 9 -3 2 -33 7 -66 11 -32 3 -62 8 -65 10 -3 2 -32 6 -65 9 -33 4 -71 8 -85
11 -25 4 -120 14 -220 21 -63 5 -647 13 -652 9z"/>
</g>
</svg>
