<svg xmlns="http://www.w3.org/2000/svg" viewBox="0 0 32.94 11.906">
  <g transform="translate(-35.285 -23.138)">
    <path fill="#fc980d" d="M41.711 34.52c-.542-.65-.135-1.9.815-2.688.897-.757 2.228-1.032 2.852-.27.598.736.164 2.038-.815 2.826-1.034.757-2.228.92-2.852.159zm1.791-4.693c-.542-.683-.135-1.903.818-2.718.868-.733 2.228-1.002 2.852-.272.598.735.164 2.037-.815 2.826-1.032.759-2.257.92-2.855.164z"/>
    <path fill="#1d1d1b" d="M50.567 32.478c-.48 1.246-.548 1.386-.897 1.802a2.387 2.387 0 0 1-1.627.764c-.556 0-1-.33-1.043-.764-.032-.416 0-.535.482-1.802l2.603-6.774c.476-1.248.55-1.386.897-1.801a2.387 2.387 0 0 1 1.627-.765c.556 0 1 .33 1.043.765.029.415 0 .534-.484 1.799zm6.469-1.003c-.262.675-.291.794-.201.884.076.066.076.066.632.156.476.069.664.569.431 1.175-.333.87-1.193 1.354-2.373 1.354-.987 0-1.754-.26-2.05-.711-.305-.469-.241-1.04.28-2.392l1.307-3.413h-.31c-.849 0-1.106-.329-.817-1.075.278-.725.738-1.02 1.622-1.02h.312l.159-.416c.299-.78.537-1.18.955-1.543a2.133 2.133 0 0 1 1.397-.571c.59 0 1.016.31 1.069.793.029.318-.027.522-.318 1.32l-.161.416h.426c.913 0 1.18.312.884 1.074-.268.712-.802 1.022-1.683 1.022h-.432zm4.558-3.241c.297-.78.508-1.146.905-1.471a2.098 2.098 0 0 1 1.27-.506c.794 0 1.059.434.926 1.387.847-.953 1.64-1.387 2.514-1.387.873 0 1.243.59.873 1.474-.185.503-.53.902-.952 1.127-.424.207-.424.207-1.561.26-.98.034-1.456.465-1.985 1.783l-.582 1.542c-.476 1.265-.53 1.387-.9 1.82a2.27 2.27 0 0 1-1.58.781c-.536 0-.991-.349-1.044-.78-.03-.418 0-.54.481-1.82zm-22.746 4.225c-.481 1.25-.55 1.387-.883 1.805a2.289 2.289 0 0 1-1.614.78c-.559 0-1.024-.33-1.059-.78-.026-.418 0-.519.487-1.805l1.521-3.966c-.793-.05-1.087-.415-.84-1.056.245-.64.748-.955 1.632-1.005l.277-.728c.662-1.72 1.942-2.566 3.882-2.566 1.37 0 2.027.503 1.72 1.3-.207.539-.704.936-1.173.936-.235 0-.43-.043-.664-.053a.74.74 0 0 0-.751.518l-.22.572h.5c.884 0 1.23.365.971 1.04-.259.674-.86 1.021-1.815 1.021h-.45z"/>
  </g>
</svg>
